<svg version="1.1" class="clearos-svg clearfoundation app-vendor-fornstad app-free app-category-server app-sub-category-file" viewBox="0 0 400 400" preserveAspectRatio="xMinYMin" xmlns="http://www.w3.org/2000/svg" xmlns:xlink= "http://www.w3.org/1999/xlink">
<path fill="#AA0707" d="M91.666,184.647"/>
<path fill="#AA0707" d="M123.245,247.805"/>
<path fill="#AA0707" d="M91.666,184.647"/>
<path fill="#AA0707" d="M123.245,247.805"/>
<path fill="#686868" d="M200,2C90.639,2,2,90.639,2,200c0,109.346,88.639,198,198,198c109.346,0,198-88.654,198-198
	C398,90.655,309.346,2,200,2z M49.985,182.743C58.557,107.462,122.446,48.97,200.016,48.97c83.434,0,151.046,67.646,151.046,151.048
	c0,0.192-0.033,0.354-0.033,0.547l-24.717-33.772l-21.432,28.922c-2.271-55.993-48.355-100.692-104.865-100.692
	c-52.095,0-95.262,37.962-103.512,87.705h14.502l-37.221,50.516l-37.222-50.516h13.422V182.743L49.985,182.743z M200,351.063
	c-80.808,0-146.776-63.455-150.869-143.246l24.622,33.369l21.882-29.729c5.735,52.594,50.241,93.521,104.349,93.521
	c49.274,0,90.606-34,101.901-79.793l-12.955-0.064l37.351-50.387l37.095,50.611l-14.502-0.05
	C336.816,296.695,274.797,351.063,200,351.063z"/>
</svg>
